# xmcd
#
# Track frame offsets: 
#        300
#        18930
#        37845
#        55929
#        73281
#        93166
#        109144
#        123056
#        140020
#        155055
#        171997
#        185984
#        199105
#        223764
#
# Disc length: 3282 seconds
#
# Revision: 0
# Processed by: cddbd v1.5.2PL0 Copyright (c) Steve Scherf et al.
# Submitted via: ExactAudioCopy v1.0b1
#
DISCID=d10cce0e
DTITLE=Chris Thomas King - Red Mud
DYEAR=1998
DGENRE=Acoustic Blues
TTITLE0=Red Mud
TTITLE1=If It Ain't One Thang, It's Two
TTITLE2=Soon This Morning Blues - 3:49
TTITLE3=Come On In My Kitchen
TTITLE4=I'm On Fire
TTITLE5=Sinking Feeling
TTITLE6=Alive
TTITLE7=Dark Cloud
TTITLE8=Hoodoo Party
TTITLE9=Rambling On My Mind
TTITLE10=Wanna Die With A Smile On My Face
TTITLE11=Death Letter Blues
TTITLE12=Bus Station Blues
TTITLE13=Raining Angels
EXTD=
EXTT0=
EXTT1=
EXTT2=
EXTT3=
EXTT4=
EXTT5=
EXTT6=
EXTT7=
EXTT8=
EXTT9=
EXTT10=
EXTT11=
EXTT12=
EXTT13=
PLAYORDER=
